<svg width="512" height="512" viewBox="0 0 512 512" fill="none" xmlns="http://www.w3.org/2000/svg">
<g clip-path="url(#clip0)">
<path d="M501.333 213.331H410.945L296.792 47.289C293.459 42.435 286.823 41.216 281.959 44.539C277.105 47.883 275.876 54.518 279.209 59.372L385.055 213.33H126.945L232.792 59.373C236.125 54.519 234.896 47.883 230.042 44.54C225.209 41.217 218.563 42.436 215.209 47.29L101.055 213.331H10.667C4.771 213.331 0 218.102 0 223.998C0 229.894 4.771 234.665 10.667 234.665H24.2L89.407 439.603C95.074 457.384 111.407 469.332 130.063 469.332H381.938C400.594 469.332 416.928 457.384 422.594 439.592L487.8 234.665H501.334C507.23 234.665 512.001 229.894 512.001 223.998C512 218.102 507.229 213.331 501.333 213.331ZM402.26 433.123C399.427 442.019 391.26 447.998 381.937 447.998H130.063C120.74 447.998 112.573 442.019 109.74 433.133L46.589 234.664H465.412L402.26 433.123Z" fill="#DDDDDD"/>
<path d="M291 323C299.822 323 307 315.822 307 307C307 298.178 299.822 291 291 291C282.178 291 275 298.178 275 307C275 315.822 282.178 323 291 323Z" fill="#DDDDDD"/>
<path d="M221 323C229.822 323 237 315.822 237 307C237 298.178 229.822 291 221 291C212.178 291 205 298.178 205 307C205 315.822 212.178 323 221 323Z" fill="#DDDDDD"/>
<path d="M256 341C228.901 341 204.386 358.359 195 384.196L207.837 389C215.25 368.595 234.605 354.886 256 354.886C277.395 354.886 296.75 368.595 304.163 389L317 384.196C307.614 358.359 283.099 341 256 341Z" fill="#DDDDDD"/>
</g>
<defs>
<clipPath id="clip0">
<rect width="512" height="512" fill="white"/>
</clipPath>
</defs>
</svg>
